<svg xmlns="http://www.w3.org/2000/svg" width="62.536" height="61.536" viewBox="0 0 62.536 61.536">
  <line id="Line_80" data-name="Line 80" x2="21" y2="21" transform="translate(38 37)" fill="none" stroke="#f66" stroke-linecap="round" stroke-width="5"/>
  <g id="Path_20" data-name="Path 20" fill="none">
    <path d="M22.5,0C34.926,0,45,9.626,45,21.5S34.926,43,22.5,43,0,33.374,0,21.5,10.074,0,22.5,0Z" stroke="none"/>
    <path d="M 22.5 5 C 17.78285598754883 5 13.35936737060547 6.744499206542969 10.04438781738281 9.912155151367188 C 6.791465759277344 13.02050018310547 5 17.13581085205078 5 21.5 C 5 25.86418914794922 6.791465759277344 29.97949981689453 10.04438781738281 33.08784484863281 C 13.35936737060547 36.25550079345703 17.78285598754883 38 22.5 38 C 27.21714401245117 38 31.64063262939453 36.25550079345703 34.95561218261719 33.08784484863281 C 38.20853424072266 29.97949981689453 40 25.86418914794922 40 21.5 C 40 17.13581085205078 38.20853424072266 13.02050018310547 34.95561218261719 9.912155151367188 C 31.64063262939453 6.744499206542969 27.21714401245117 5 22.5 5 M 22.5 0 C 34.92641067504883 0 45 9.625877380371094 45 21.5 C 45 33.37412261962891 34.92641067504883 43 22.5 43 C 10.07358932495117 43 0 33.37412261962891 0 21.5 C 0 9.625877380371094 10.07358932495117 0 22.5 0 Z" stroke="none" fill="#f66"/>
  </g>
</svg>
