<svg xmlns="http://www.w3.org/2000/svg" width="64.764" height="64.764" viewBox="0 0 64.764 64.764">
  <g id="Path_13" data-name="Path 13" fill="none" stroke-linecap="round">
    <path d="M32.382,0A32.383,32.383,0,1,1,0,32.382s22.672,12.664,33.859,1.477C44.742,22.977,32.382,0,32.382,0Z" stroke="none"/>
    <path d="M 40.44211196899414 6.204917907714844 C 41.02297210693359 7.880558013916016 41.58692169189453 9.7244873046875 42.05956268310547 11.66587448120117 C 44.7575798034668 22.74798202514648 43.14448547363281 31.64486312866211 37.39467239379883 37.39467620849609 C 33.36012268066406 41.42922210693359 27.95375061035156 43.47491455078125 21.32573699951172 43.47491455078125 C 15.94039535522461 43.47491455078125 10.53324508666992 42.08058166503906 6.238689422607422 40.56056976318359 C 6.392219543457031 41.05245208740234 6.559967041015625 41.54072189331055 6.741752624511719 42.02466201782227 C 7.856006622314453 44.99098205566406 9.46368408203125 47.71417999267578 11.52021789550781 50.11870193481445 C 14.09111404418945 53.12472915649414 17.1904182434082 55.49600982666016 20.7320442199707 57.16666412353516 C 24.38528442382812 58.88998413085938 28.30485916137695 59.7637825012207 32.38188552856445 59.7637825012207 C 36.08061981201172 59.7637825012207 39.66606140136719 59.04050445556641 43.03860473632812 57.61403656005859 C 46.29862976074219 56.23515701293945 49.22747039794922 54.26012802124023 51.74379348754883 51.74380874633789 C 54.26011276245117 49.22748947143555 56.23513793945312 46.29863739013672 57.61401748657227 43.03861999511719 C 59.04048538208008 39.66606140136719 59.76376342773438 36.08062362670898 59.76376342773438 32.38188934326172 C 59.76376342773438 30.17563629150391 59.50149917602539 27.98139572143555 58.98427200317383 25.86011505126953 C 58.48272705078125 23.8032112121582 57.7391242980957 21.80350112915039 56.77409744262695 19.91655731201172 C 54.883056640625 16.21886444091797 52.13002014160156 12.9541015625 48.81255340576172 10.47514343261719 C 46.24567413330078 8.556972503662109 43.42422103881836 7.123130798339844 40.44211196899414 6.204917907714844 M 32.38188552856445 -7.62939453125e-06 C 39.64280700683594 -7.62939453125e-06 46.34555053710938 2.3897705078125 51.80556488037109 6.469917297363281 C 59.64840698242188 12.33042144775391 64.76376342773438 21.75878143310547 64.76376342773438 32.38188934326172 C 64.76376342773438 50.26590347290039 50.26589965820312 64.76378631591797 32.38188552856445 64.76378631591797 C 22.52779388427734 64.76378631591797 13.70174026489258 60.36220932006836 7.720378875732422 53.36850357055664 C 2.922779083251953 47.75908660888672 -7.62939453125e-06 40.41181182861328 -7.62939453125e-06 32.38188934326172 C -1.52587890625e-05 32.38188552856445 22.6724853515625 45.04579162597656 33.85913848876953 33.8591423034668 C 44.74168395996094 22.97659683227539 32.38188552856445 -7.62939453125e-06 32.38188552856445 -7.62939453125e-06 Z" stroke="none" fill="#f66"/>
  </g>
</svg>