<svg xmlns="http://www.w3.org/2000/svg" width="490.534" height="114.767" viewBox="0 0 490.534 114.767">
  <g id="Group_30" data-name="Group 30" transform="translate(-138.757)">
    <rect id="Rectangle_273" data-name="Rectangle 273" width="114.767" height="15.273" transform="translate(611.159 0) rotate(90)" fill="#dbdbdb"/>
    <rect id="Rectangle_274" data-name="Rectangle 274" width="114.767" height="16.146" transform="translate(567.521 0) rotate(90)" fill="#dbdbdb"/>
    <rect id="Rectangle_281" data-name="Rectangle 281" width="114.767" height="15.273" transform="translate(303.513 0) rotate(90)" fill="#dbdbdb"/>
    <rect id="Rectangle_276" data-name="Rectangle 276" width="114.767" height="15.273" transform="translate(523.447 0) rotate(90)" fill="#dbdbdb"/>
    <rect id="Rectangle_282" data-name="Rectangle 282" width="114.767" height="14.837" transform="translate(259.439 0) rotate(90)" fill="#dbdbdb"/>
    <rect id="Rectangle_277" data-name="Rectangle 277" width="114.767" height="15.273" transform="translate(479.373 0) rotate(90)" fill="#dbdbdb"/>
    <rect id="Rectangle_283" data-name="Rectangle 283" width="114.767" height="15.273" transform="translate(215.801 0) rotate(90)" fill="#dbdbdb"/>
    <rect id="Rectangle_278" data-name="Rectangle 278" width="114.767" height="14.837" transform="translate(435.299 0) rotate(90)" fill="#dbdbdb"/>
    <rect id="Rectangle_279" data-name="Rectangle 279" width="114.767" height="15.273" transform="translate(391.661 0) rotate(90)" fill="#dbdbdb"/>
    <rect id="Rectangle_280" data-name="Rectangle 280" width="114.767" height="15.273" transform="translate(347.587 0) rotate(90)" fill="#dbdbdb"/>
    <rect id="Rectangle_287" data-name="Rectangle 287" width="114.767" height="15.273" transform="translate(172.163 0) rotate(90)" fill="#dbdbdb"/>
    <rect id="Rectangle_275" data-name="Rectangle 275" width="17.455" height="490.534" transform="translate(629.291 13.091) rotate(90)" fill="#dbdbdb"/>
    <rect id="Rectangle_270" data-name="Rectangle 270" width="17.455" height="490.534" transform="translate(629.291 85.53) rotate(90)" fill="#dbdbdb"/>
  </g>
</svg>
